# xmcd CD database file
#
# Track frame offsets:
#	150
#	15401
#	31757
#	48250
#	62180
#	81706
#	100061
#	116349
#	129738
#	145071
#	163195
#	177127
#
# Disc length: 2506 seconds
#
# Revision: 0
# Processed by: cddbd v1.5.1PL0 Copyright (c) Steve Scherf et al.
# Submitted via: CDex 1.51
#
DISCID=9a09c80c
DTITLE=Well Hungarians - Sorry 'Bout The Mess
DYEAR=2004
DGENRE=Country
TTITLE0=Rock 'N Roll Singer
TTITLE1=Legs For Days
TTITLE2=Sorry 'Bout The Mess
TTITLE3=Southern Peaches
TTITLE4=Windfield Ferry
TTITLE5=Getaway Car
TTITLE6=Betty Rides Around
TTITLE7=She Ain't You
TTITLE8=Mama Was A Train
TTITLE9=Why Can't We All Just Get Along
TTITLE10=In The Morning
TTITLE11=Helplessly Hoping
EXTD=YEAR: 2004
EXTT0=
EXTT1=
EXTT2=
EXTT3=
EXTT4=
EXTT5=
EXTT6=
EXTT7=
EXTT8=
EXTT9=
EXTT10=
EXTT11=
PLAYORDER=
